<?xml version="1.0" encoding="UTF-8"?>
<svg width="500px" height="500px" viewBox="0 0 500 500" version="1.1" xmlns="http://www.w3.org/2000/svg" xmlns:xlink="http://www.w3.org/1999/xlink">
    <!-- Generator: Sketch 50.2 (55047) - http://www.bohemiancoding.com/sketch -->
    <title>Oval Logo</title>
    <desc>Created with Sketch.</desc>
    <defs></defs>
    <g id="Logo" stroke="none" stroke-width="1" fill="none" fill-rule="evenodd">
        <g id="Oval-Logo">
            <circle id="Oval" fill="#358AC0" fill-rule="evenodd" cx="250" cy="250" r="250"></circle>
            <g id="Spock-Hand" transform="translate(37.000000, 43.000000)" fill="#FFFFFF" fill-rule="nonzero">
                <path d="M8.49375,247.332031 C20.3210937,234.764844 40.0984375,234.164844 52.6679687,245.99375 L100,290.541406 L100,228.50625 L69.5273438,94.4257812 C65.7023438,77.5960937 76.2445313,60.8523437 93.0742188,57.0273438 C109.909375,53.2039063 126.648438,63.7453125 130.472656,80.575 L157.614844,200 L165.296875,200 L128.1375,38.2546875 C124.273438,21.4335938 134.776563,4.665625 151.596875,0.8015625 C168.41875,-3.065625 185.185938,7.440625 189.05,24.2609375 L229.425,200 L241.225781,200 L279.057813,48.6703125 C283.242969,31.9265625 300.210156,21.746875 316.953906,25.9328125 C333.697656,30.11875 343.878125,47.0851563 339.691406,63.8289063 L305.649219,200 L314.305469,200 L338.342969,99.0117188 C342.340625,82.221875 359.190625,71.8492188 375.98125,75.85 C392.771094,79.8476563 403.141406,96.6984375 399.142969,113.488281 L370.789844,232.603125 C369.434908,238.294147 368.750308,244.124126 368.75,249.974219 L368.75,282.866406 C368.749898,290.084242 367.707904,297.264269 365.65625,304.184375 L345.207812,373.158594 C340.488281,389.079687 325.860156,400 309.254687,400 L139.978125,400 C130.425516,400.000025 121.23296,396.354634 114.276562,389.807812 L9.83203125,291.50625 C-2.7359375,279.677344 -3.334375,259.9 8.49375,247.332031 Z" id="Shape"></path>
            </g>
        </g>
    </g>
</svg>