<?xml version="1.0" encoding="UTF-8"?>
<svg width="1368px" height="135px" viewBox="0 0 1368 135" version="1.1" xmlns="http://www.w3.org/2000/svg" xmlns:xlink="http://www.w3.org/1999/xlink">
    <!-- Generator: Sketch 50.2 (55047) - http://www.bohemiancoding.com/sketch -->
    <title>Tagline/Outlines</title>
    <desc>Created with Sketch.</desc>
    <defs></defs>
    <g id="Logo" stroke="none" stroke-width="1" fill="none" fill-rule="evenodd">
        <g id="Tagline/Outlines" fill="#9B9B9B">
            <path d="M0.232,104 L22.264,0.32 L37.24,0.32 L51.784,91.76 L52.072,91.76 L104.92,0.32 L119.752,0.32 L97.72,104 L87.928,104 L107.512,11.552 L107.224,11.552 L53.656,104 L44.44,104 L29.896,11.552 L29.608,11.552 L10.024,104 L0.232,104 Z M176.488,64.832 C172.45598,66.3680077 168.544019,67.3759976 164.752,67.856 C160.959981,68.3360024 157.144019,68.7199986 153.304,69.008 C146.583966,69.4880024 141.088021,70.9759875 136.816,73.472 C132.543979,75.9680125 129.880005,79.7599746 128.824,84.848 C128.343998,87.1520115 128.391997,89.1439916 128.968,90.824 C129.544003,92.5040084 130.479994,93.8959945 131.776,95 C133.072006,96.1040055 134.631991,96.9199974 136.456,97.448 C138.280009,97.9760026 140.19999,98.24 142.216,98.24 C145.672017,98.24 149.103983,97.8080043 152.512,96.944 C155.920017,96.0799957 159.087985,94.7600089 162.016,92.984 C164.944015,91.2079911 167.463989,88.9520137 169.576,86.216 C171.688011,83.4799863 173.175996,80.2400187 174.04,76.496 L176.488,64.832 Z M162.808,60.512 C164.440008,60.319999 166.431988,60.0320019 168.784,59.648 C171.136012,59.2639981 173.127992,58.7360034 174.76,58.064 C176.392008,57.3919966 177.519997,56.2640079 178.144,54.68 C178.768003,53.0959921 179.223999,51.6320067 179.512,50.288 C179.992002,48.079989 180.088001,46.0640091 179.8,44.24 C179.511999,42.4159909 178.768006,40.8320067 177.568,39.488 C176.367994,38.1439933 174.688011,37.0880038 172.528,36.32 C170.367989,35.5519962 167.608017,35.168 164.248,35.168 C158.29597,35.168 153.112022,36.367988 148.696,38.768 C144.279978,41.168012 141.016011,45.5839678 138.904,52.016 L130.12,52.016 C131.368006,47.5999779 133.167988,43.8320156 135.52,40.712 C137.872012,37.5919844 140.631984,35.0480098 143.8,33.08 C146.968016,31.1119902 150.447981,29.6720046 154.24,28.76 C158.032019,27.8479954 161.94398,27.392 165.976,27.392 C169.720019,27.392 173.151984,27.7999959 176.272,28.616 C179.392016,29.4320041 181.98399,30.7279911 184.048,32.504 C186.11201,34.2800089 187.527996,36.6559851 188.296,39.632 C189.064004,42.6080149 189.016004,46.2559784 188.152,50.576 L179.512,91.184 C178.743996,94.5440168 178.863995,96.6799954 179.872,97.592 C180.880005,98.5040046 183.35198,98.2880067 187.288,96.944 L185.848,103.712 C185.175997,103.904001 184.144007,104.191998 182.752,104.576 C181.359993,104.960002 180.040006,105.152 178.792,105.152 C177.543994,105.152 176.296006,105.008001 175.048,104.72 C172.263986,104.239998 170.680002,102.920011 170.296,100.76 C169.911998,98.5999892 169.959998,96.224013 170.44,93.632 C165.927977,97.6640202 161.104026,100.735989 155.968,102.848 C150.831974,104.960011 145.528027,106.016 140.056,106.016 C136.791984,106.016 133.744014,105.584004 130.912,104.72 C128.079986,103.855996 125.70401,102.512009 123.784,100.688 C121.86399,98.8639909 120.520004,96.6320132 119.752,93.992 C118.983996,91.3519868 118.983996,88.2080182 119.752,84.56 C122.344013,71.8879366 132.61591,64.4000115 150.568,62.096 L162.808,60.512 Z M198.808,104 L220.84,0.32 L229.48,0.32 L215.8,64.832 L259.864,29.408 L271.672,29.408 L237.976,56.336 L259.144,104 L249.496,104 L230.344,62.384 L213.496,75.776 L207.448,104 L198.808,104 Z M272.68,104 L288.52,29.408 L297.16,29.408 L281.32,104 L272.68,104 Z M291.544,13.136 L294.28,0.32 L303.784,0.32 L301.048,13.136 L291.544,13.136 Z M311.992,104 L303.352,104 L319.192,29.408 L327.832,29.408 L325.672,39.776 C329.896021,36.1279818 334.095979,33.1520115 338.272,30.848 C342.448021,28.5439885 347.127974,27.392 352.312,27.392 C356.920023,27.392 361.023982,28.1839921 364.624,29.768 C368.224018,31.3520079 370.935991,34.1119803 372.76,38.048 C374.008006,40.7360134 374.512001,43.4959858 374.272,46.328 C374.031999,49.1600142 373.576003,52.1119846 372.904,55.184 L362.536,104 L353.896,104 L364.264,55.328 C365.704007,48.6079664 365.296011,43.5680168 363.04,40.208 C360.783989,36.8479832 356.200035,35.168 349.288,35.168 C346.599987,35.168 344.056012,35.5759959 341.656,36.392 C339.255988,37.2080041 337.02401,38.2879933 334.96,39.632 C332.89599,40.9760067 331.048008,42.5119914 329.416,44.24 C327.783992,45.9680086 326.440005,47.7919904 325.384,49.712 C324.039993,52.112012 323.032003,54.415989 322.36,56.624 C321.687997,58.832011 321.064003,61.231987 320.488,63.824 L311.992,104 Z M448.936,66.992 C449.896005,62.4799774 450.232001,58.2800194 449.944,54.392 C449.655999,50.5039806 448.744008,47.1440142 447.208,44.312 C445.671992,41.4799858 443.512014,39.2480082 440.728,37.616 C437.943986,35.9839918 434.53602,35.168 430.504,35.168 C426.855982,35.168 423.352017,35.8159935 419.992,37.112 C416.631983,38.4080065 413.536014,40.3039875 410.704,42.8 C407.871986,45.2960125 405.42401,48.343982 403.36,51.944 C401.29599,55.544018 399.736005,59.6959765 398.68,64.4 C397.527994,69.1040235 397,73.4959796 397.096,77.576 C397.192,81.6560204 397.983993,85.2319846 399.472,88.304 C400.960007,91.3760154 403.143986,93.7999911 406.024,95.576 C408.904014,97.3520089 412.599977,98.24 417.112,98.24 C421.04802,98.24 424.743983,97.4000084 428.2,95.72 C431.656017,94.0399916 434.775986,91.7840142 437.56,88.952 C440.344014,86.1199858 442.71999,82.808019 444.688,79.016 C446.65601,75.223981 448.071996,71.2160211 448.936,66.992 Z M456.856,29.408 L465.496,29.408 L451.24,96.8 C450.183995,101.792025 448.67201,106.567977 446.704,111.128 C444.73599,115.688023 442.072017,119.695983 438.712,123.152 C435.351983,126.608017 431.200025,129.36799 426.256,131.432 C421.311975,133.49601 415.288036,134.528 408.184,134.528 C402.711973,134.528 398.152018,133.832007 394.504,132.44 C390.855982,131.047993 388.00001,129.296011 385.936,127.184 C383.87199,125.071989 382.480004,122.744013 381.76,120.2 C381.039996,117.655987 380.871998,115.280011 381.256,113.072 L390.472,113.072 C390.472,115.856014 390.999995,118.135991 392.056,119.912 C393.112005,121.688009 394.527991,123.079995 396.304,124.088 C398.080009,125.096005 400.119988,125.791998 402.424,126.176 C404.728012,126.560002 407.175987,126.752 409.768,126.752 C415.624029,126.752 420.54398,125.74401 424.528,123.728 C428.51202,121.71199 431.775987,119.072016 434.32,115.808 C436.864013,112.543984 438.831993,108.848021 440.224,104.72 C441.616007,100.591979 442.743996,96.3680216 443.608,92.048 C439.863981,96.656023 435.304027,100.135988 429.928,102.488 C424.551973,104.840012 419.224026,106.016 413.944,106.016 C408.279972,106.016 403.576019,104.936011 399.832,102.776 C396.087981,100.615989 393.23201,97.736018 391.264,94.136 C389.29599,90.535982 388.144002,86.336024 387.808,81.536 C387.471998,76.735976 387.879994,71.7440259 389.032,66.56 C390.184006,61.0879726 391.911988,55.952024 394.216,51.152 C396.520012,46.351976 399.399983,42.2000175 402.856,38.696 C406.312017,35.1919825 410.367977,32.4320101 415.024,30.416 C419.680023,28.3999899 425.03197,27.392 431.08,27.392 C433.480012,27.392 435.855988,27.7279966 438.208,28.4 C440.560012,29.0720034 442.76799,30.0319938 444.832,31.28 C446.89601,32.5280062 448.719992,34.1119904 450.304,36.032 C451.888008,37.9520096 453.063996,40.111988 453.832,42.512 L454.12,42.512 L456.856,29.408 Z M537.64,104.288 C536.583995,104.480001 535.120009,104.815998 533.248,105.296 C531.375991,105.776002 529.384011,106.016 527.272,106.016 C522.951978,106.016 519.904009,104.936011 518.128,102.776 C516.351991,100.615989 516.039994,96.7520278 517.192,91.184 L528.712,36.608 L518.2,36.608 L519.784,29.408 L530.296,29.408 L534.76,8.672 L543.4,8.672 L538.936,29.408 L552.904,29.408 L551.32,36.608 L537.352,36.608 L526.552,87.728 C526.167998,89.5520091 525.880001,91.1359933 525.688,92.48 C525.495999,93.8240067 525.567998,94.9279957 525.904,95.792 C526.240002,96.6560043 526.863995,97.2799981 527.776,97.664 C528.688005,98.0480019 530.055991,98.24 531.88,98.24 C533.032006,98.24 534.207994,98.144001 535.408,97.952 C536.608006,97.759999 537.831994,97.5200014 539.08,97.232 L537.64,104.288 Z M551.464,104 L573.496,0.32 L582.136,0.32 L573.784,39.776 C578.008021,36.1279818 582.207979,33.1520115 586.384,30.848 C590.560021,28.5439885 595.239974,27.392 600.424,27.392 C605.032023,27.392 609.135982,28.1839921 612.736,29.768 C616.336018,31.3520079 619.047991,34.1119803 620.872,38.048 C622.120006,40.7360134 622.624001,43.4959858 622.384,46.328 C622.143999,49.1600142 621.688003,52.1119846 621.016,55.184 L610.648,104 L602.008,104 L612.376,55.328 C613.816007,48.6079664 613.408011,43.5680168 611.152,40.208 C608.895989,36.8479832 604.312035,35.168 597.4,35.168 C594.711987,35.168 592.168012,35.5759959 589.768,36.392 C587.367988,37.2080041 585.13601,38.2879933 583.072,39.632 C581.00799,40.9760067 579.160008,42.5119914 577.528,44.24 C575.895992,45.9680086 574.552005,47.7919904 573.496,49.712 C572.151993,52.112012 571.144003,54.415989 570.472,56.624 C569.799997,58.832011 569.176003,61.231987 568.6,63.824 L560.104,104 L551.464,104 Z M632.824,104 L648.664,29.408 L657.304,29.408 L641.464,104 L632.824,104 Z M651.688,13.136 L654.424,0.32 L663.928,0.32 L661.192,13.136 L651.688,13.136 Z M672.136,104 L663.496,104 L679.336,29.408 L687.976,29.408 L685.816,39.776 C690.040021,36.1279818 694.239979,33.1520115 698.416,30.848 C702.592021,28.5439885 707.271974,27.392 712.456,27.392 C717.064023,27.392 721.167982,28.1839921 724.768,29.768 C728.368018,31.3520079 731.079991,34.1119803 732.904,38.048 C734.152006,40.7360134 734.656001,43.4959858 734.416,46.328 C734.175999,49.1600142 733.720003,52.1119846 733.048,55.184 L722.68,104 L714.04,104 L724.408,55.328 C725.848007,48.6079664 725.440011,43.5680168 723.184,40.208 C720.927989,36.8479832 716.344035,35.168 709.432,35.168 C706.743987,35.168 704.200012,35.5759959 701.8,36.392 C699.399988,37.2080041 697.16801,38.2879933 695.104,39.632 C693.03999,40.9760067 691.192008,42.5119914 689.56,44.24 C687.927992,45.9680086 686.584005,47.7919904 685.528,49.712 C684.183993,52.112012 683.176003,54.415989 682.504,56.624 C681.831997,58.832011 681.208003,61.231987 680.632,63.824 L672.136,104 Z M809.08,66.992 C810.040005,62.4799774 810.376001,58.2800194 810.088,54.392 C809.799999,50.5039806 808.888008,47.1440142 807.352,44.312 C805.815992,41.4799858 803.656014,39.2480082 800.872,37.616 C798.087986,35.9839918 794.68002,35.168 790.648,35.168 C786.999982,35.168 783.496017,35.8159935 780.136,37.112 C776.775983,38.4080065 773.680014,40.3039875 770.848,42.8 C768.015986,45.2960125 765.56801,48.343982 763.504,51.944 C761.43999,55.544018 759.880005,59.6959765 758.824,64.4 C757.671994,69.1040235 757.144,73.4959796 757.24,77.576 C757.336,81.6560204 758.127993,85.2319846 759.616,88.304 C761.104007,91.3760154 763.287986,93.7999911 766.168,95.576 C769.048014,97.3520089 772.743977,98.24 777.256,98.24 C781.19202,98.24 784.887983,97.4000084 788.344,95.72 C791.800017,94.0399916 794.919986,91.7840142 797.704,88.952 C800.488014,86.1199858 802.86399,82.808019 804.832,79.016 C806.80001,75.223981 808.215996,71.2160211 809.08,66.992 Z M817,29.408 L825.64,29.408 L811.384,96.8 C810.327995,101.792025 808.81601,106.567977 806.848,111.128 C804.87999,115.688023 802.216017,119.695983 798.856,123.152 C795.495983,126.608017 791.344025,129.36799 786.4,131.432 C781.455975,133.49601 775.432036,134.528 768.328,134.528 C762.855973,134.528 758.296018,133.832007 754.648,132.44 C750.999982,131.047993 748.14401,129.296011 746.08,127.184 C744.01599,125.071989 742.624004,122.744013 741.904,120.2 C741.183996,117.655987 741.015998,115.280011 741.4,113.072 L750.616,113.072 C750.616,115.856014 751.143995,118.135991 752.2,119.912 C753.256005,121.688009 754.671991,123.079995 756.448,124.088 C758.224009,125.096005 760.263988,125.791998 762.568,126.176 C764.872012,126.560002 767.319987,126.752 769.912,126.752 C775.768029,126.752 780.68798,125.74401 784.672,123.728 C788.65602,121.71199 791.919987,119.072016 794.464,115.808 C797.008013,112.543984 798.975993,108.848021 800.368,104.72 C801.760007,100.591979 802.887996,96.3680216 803.752,92.048 C800.007981,96.656023 795.448027,100.135988 790.072,102.488 C784.695973,104.840012 779.368026,106.016 774.088,106.016 C768.423972,106.016 763.720019,104.936011 759.976,102.776 C756.231981,100.615989 753.37601,97.736018 751.408,94.136 C749.43999,90.535982 748.288002,86.336024 747.952,81.536 C747.615998,76.735976 748.023994,71.7440259 749.176,66.56 C750.328006,61.0879726 752.055988,55.952024 754.36,51.152 C756.664012,46.351976 759.543983,42.2000175 763,38.696 C766.456017,35.1919825 770.511977,32.4320101 775.168,30.416 C779.824023,28.3999899 785.17597,27.392 791.224,27.392 C793.624012,27.392 795.999988,27.7279966 798.352,28.4 C800.704012,29.0720034 802.91199,30.0319938 804.976,31.28 C807.04001,32.5280062 808.863992,34.1119904 810.448,36.032 C812.032008,37.9520096 813.207996,40.111988 813.976,42.512 L814.264,42.512 L817,29.408 Z M841.48,80.672 C841.576,87.1040322 843.087985,91.6399868 846.016,94.28 C848.944015,96.9200132 853.671967,98.24 860.2,98.24 C863.368016,98.24 866.175988,97.8560038 868.624,97.088 C871.072012,96.3199962 873.183991,95.2880065 874.96,93.992 C876.736009,92.6959935 878.175994,91.2320082 879.28,89.6 C880.384006,87.9679918 881.127998,86.2400091 881.512,84.416 C882.280004,80.7679818 881.68001,78.0560089 879.712,76.28 C877.74399,74.5039911 875.080017,73.112005 871.72,72.104 C868.359983,71.095995 864.71202,70.2320036 860.776,69.512 C856.83998,68.7919964 853.240016,67.7120072 849.976,66.272 C846.711984,64.8319928 844.192009,62.7680134 842.416,60.08 C840.639991,57.3919866 840.279995,53.6000245 841.336,48.704 C842.680007,42.4639688 846.039973,37.3520199 851.416,33.368 C856.792027,29.3839801 863.655958,27.392 872.008,27.392 C880.07204,27.392 886.215979,29.191982 890.44,32.792 C894.664021,36.392018 896.440003,42.4159578 895.768,50.864 L886.984,50.864 C887.368002,45.1039712 886.024015,41.0480118 882.952,38.696 C879.879985,36.3439882 875.656027,35.168 870.28,35.168 C864.807973,35.168 860.368017,36.3439882 856.96,38.696 C853.551983,41.0480118 851.464004,44.1439808 850.696,47.984 C850.119997,50.4800125 850.359995,52.5439918 851.416,54.176 C852.472005,55.8080082 854.00799,57.1519947 856.024,58.208 C858.04001,59.2640053 860.391987,60.1519964 863.08,60.872 C865.768013,61.5920036 868.527986,62.3119964 871.36,63.032 C874.192014,63.7520036 876.927987,64.5919952 879.568,65.552 C882.208013,66.5120048 884.48799,67.7839921 886.408,69.368 C888.32801,70.9520079 889.719996,72.943988 890.584,75.344 C891.448004,77.744012 891.496004,80.7199822 890.728,84.272 C889.959996,87.8240178 888.54401,90.9679863 886.48,93.704 C884.41599,96.4400137 881.824016,98.7199909 878.704,100.544 C875.583984,102.368009 872.080019,103.735995 868.192,104.648 C864.303981,105.560005 860.152022,106.016 855.736,106.016 C851.319978,106.016 847.552016,105.368006 844.432,104.072 C841.311984,102.775994 838.79201,100.976012 836.872,98.672 C834.95199,96.3679885 833.632004,93.6800154 832.912,90.608 C832.191996,87.5359846 832.119997,84.2240178 832.696,80.672 L841.48,80.672 Z M944.872,104 L966.904,0.32 L975.544,0.32 L953.512,104 L944.872,104 Z M1004.776,106.016 C999.975976,105.92 995.680019,105.056008 991.888,103.424 C988.095981,101.791992 984.976012,99.3440163 982.528,96.08 C980.079988,92.8159837 978.472004,88.7360245 977.704,83.84 C976.935996,78.9439755 977.223993,73.2320326 978.568,66.704 C979.720006,61.2319726 981.519988,56.1200238 983.968,51.368 C986.416012,46.6159762 989.463982,42.4640178 993.112,38.912 C996.760018,35.3599822 1000.95998,32.5520103 1005.712,30.488 C1010.46402,28.4239897 1015.71997,27.392 1021.48,27.392 C1027.33603,27.392 1032.20798,28.4239897 1036.096,30.488 C1039.98402,32.5520103 1042.98399,35.3359825 1045.096,38.84 C1047.20801,42.3440175 1048.456,46.495976 1048.84,51.296 C1049.224,56.096024 1048.84001,61.2319726 1047.688,66.704 C1046.43999,72.6560298 1044.47201,78.031976 1041.784,82.832 C1039.09599,87.632024 1035.88002,91.7599827 1032.136,95.216 C1028.39198,98.6720173 1024.19202,101.335991 1019.536,103.208 C1014.87998,105.080009 1009.96003,106.016 1004.776,106.016 Z M1038.472,66.704 C1039.336,62.2879779 1039.72,58.1600192 1039.624,54.32 C1039.528,50.4799808 1038.78401,47.1440142 1037.392,44.312 C1035.99999,41.4799858 1033.88801,39.2480082 1031.056,37.616 C1028.22399,35.9839918 1024.50402,35.168 1019.896,35.168 C1015.38398,35.168 1011.32802,36.0559911 1007.728,37.832 C1004.12798,39.6080089 1000.98401,41.9599854 998.296,44.888 C995.607987,47.8160146 993.400009,51.175981 991.672,54.968 C989.943991,58.760019 988.648004,62.6719798 987.784,66.704 C986.823995,71.312023 986.487999,75.5599806 986.776,79.448 C987.064001,83.3360194 987.975992,86.6719861 989.512,89.456 C991.048008,92.2400139 993.231986,94.3999923 996.064,95.936 C998.896014,97.4720077 1002.37598,98.24 1006.504,98.24 C1011.01602,98.24 1015.07198,97.3520089 1018.672,95.576 C1022.27202,93.7999911 1025.39199,91.4240149 1028.032,88.448 C1030.67201,85.4719851 1032.85599,82.1120187 1034.584,78.368 C1036.31201,74.6239813 1037.608,70.7360202 1038.472,66.704 Z M1121.128,66.992 C1122.088,62.4799774 1122.424,58.2800194 1122.136,54.392 C1121.848,50.5039806 1120.93601,47.1440142 1119.4,44.312 C1117.86399,41.4799858 1115.70401,39.2480082 1112.92,37.616 C1110.13599,35.9839918 1106.72802,35.168 1102.696,35.168 C1099.04798,35.168 1095.54402,35.8159935 1092.184,37.112 C1088.82398,38.4080065 1085.72801,40.3039875 1082.896,42.8 C1080.06399,45.2960125 1077.61601,48.343982 1075.552,51.944 C1073.48799,55.544018 1071.92801,59.6959765 1070.872,64.4 C1069.71999,69.1040235 1069.192,73.4959796 1069.288,77.576 C1069.384,81.6560204 1070.17599,85.2319846 1071.664,88.304 C1073.15201,91.3760154 1075.33599,93.7999911 1078.216,95.576 C1081.09601,97.3520089 1084.79198,98.24 1089.304,98.24 C1093.24002,98.24 1096.93598,97.4000084 1100.392,95.72 C1103.84802,94.0399916 1106.96799,91.7840142 1109.752,88.952 C1112.53601,86.1199858 1114.91199,82.808019 1116.88,79.016 C1118.84801,75.223981 1120.264,71.2160211 1121.128,66.992 Z M1129.048,29.408 L1137.688,29.408 L1123.432,96.8 C1122.37599,101.792025 1120.86401,106.567977 1118.896,111.128 C1116.92799,115.688023 1114.26402,119.695983 1110.904,123.152 C1107.54398,126.608017 1103.39202,129.36799 1098.448,131.432 C1093.50398,133.49601 1087.48004,134.528 1080.376,134.528 C1074.90397,134.528 1070.34402,133.832007 1066.696,132.44 C1063.04798,131.047993 1060.19201,129.296011 1058.128,127.184 C1056.06399,125.071989 1054.672,122.744013 1053.952,120.2 C1053.232,117.655987 1053.064,115.280011 1053.448,113.072 L1062.664,113.072 C1062.664,115.856014 1063.19199,118.135991 1064.248,119.912 C1065.30401,121.688009 1066.71999,123.079995 1068.496,124.088 C1070.27201,125.096005 1072.31199,125.791998 1074.616,126.176 C1076.92001,126.560002 1079.36799,126.752 1081.96,126.752 C1087.81603,126.752 1092.73598,125.74401 1096.72,123.728 C1100.70402,121.71199 1103.96799,119.072016 1106.512,115.808 C1109.05601,112.543984 1111.02399,108.848021 1112.416,104.72 C1113.80801,100.591979 1114.936,96.3680216 1115.8,92.048 C1112.05598,96.656023 1107.49603,100.135988 1102.12,102.488 C1096.74397,104.840012 1091.41603,106.016 1086.136,106.016 C1080.47197,106.016 1075.76802,104.936011 1072.024,102.776 C1068.27998,100.615989 1065.42401,97.736018 1063.456,94.136 C1061.48799,90.535982 1060.336,86.336024 1060,81.536 C1059.664,76.735976 1060.07199,71.7440259 1061.224,66.56 C1062.37601,61.0879726 1064.10399,55.952024 1066.408,51.152 C1068.71201,46.351976 1071.59198,42.2000175 1075.048,38.696 C1078.50402,35.1919825 1082.55998,32.4320101 1087.216,30.416 C1091.87202,28.3999899 1097.22397,27.392 1103.272,27.392 C1105.67201,27.392 1108.04799,27.7279966 1110.4,28.4 C1112.75201,29.0720034 1114.95999,30.0319938 1117.024,31.28 C1119.08801,32.5280062 1120.91199,34.1119904 1122.496,36.032 C1124.08001,37.9520096 1125.256,40.111988 1126.024,42.512 L1126.312,42.512 L1129.048,29.408 Z M1144.888,104 L1160.728,29.408 L1169.368,29.408 L1153.528,104 L1144.888,104 Z M1163.752,13.136 L1166.488,0.32 L1175.992,0.32 L1173.256,13.136 L1163.752,13.136 Z M1239.208,52.88 C1238.92,47.3119722 1237.24002,42.9680156 1234.168,39.848 C1231.09598,36.7279844 1226.68003,35.168 1220.92,35.168 C1216.50398,35.168 1212.52002,36.0799909 1208.968,37.904 C1205.41598,39.7280091 1202.29601,42.1519849 1199.608,45.176 C1196.91999,48.2000151 1194.71201,51.607981 1192.984,55.4 C1191.25599,59.192019 1189.96,63.0079808 1189.096,66.848 C1188.232,70.7840197 1187.872,74.6239813 1188.016,78.368 C1188.16,82.1120187 1188.92799,85.4719851 1190.32,88.448 C1191.71201,91.4240149 1193.79999,93.7999911 1196.584,95.576 C1199.36801,97.3520089 1203.01598,98.24 1207.528,98.24 C1213.96003,98.24 1219.50398,96.4640178 1224.16,92.912 C1228.81602,89.3599822 1232.29599,84.4640312 1234.6,78.224 L1243.816,78.224 C1242.18399,82.3520206 1240.16801,86.119983 1237.768,89.528 C1235.36799,92.936017 1232.58402,95.8639878 1229.416,98.312 C1226.24798,100.760012 1222.69602,102.655993 1218.76,104 C1214.82398,105.344007 1210.50402,106.016 1205.8,106.016 C1199.84797,106.016 1194.92802,105.00801 1191.04,102.992 C1187.15198,100.97599 1184.17601,98.2160175 1182.112,94.712 C1180.04799,91.2079825 1178.872,87.056024 1178.584,82.256 C1178.296,77.455976 1178.72799,72.3200274 1179.88,66.848 C1180.93601,61.6639741 1182.71199,56.6960238 1185.208,51.944 C1187.70401,47.1919762 1190.77598,42.9920182 1194.424,39.344 C1198.07202,35.6959818 1202.27198,32.7920108 1207.024,30.632 C1211.77602,28.4719892 1216.93597,27.392 1222.504,27.392 C1231.14404,27.392 1237.69598,29.4559794 1242.16,33.584 C1246.62402,37.7120206 1248.568,44.1439563 1247.992,52.88 L1239.208,52.88 Z M1312.792,64.832 C1308.75998,66.3680077 1304.84802,67.3759976 1301.056,67.856 C1297.26398,68.3360024 1293.44802,68.7199986 1289.608,69.008 C1282.88797,69.4880024 1277.39202,70.9759875 1273.12,73.472 C1268.84798,75.9680125 1266.18401,79.7599746 1265.128,84.848 C1264.648,87.1520115 1264.696,89.1439916 1265.272,90.824 C1265.848,92.5040084 1266.78399,93.8959945 1268.08,95 C1269.37601,96.1040055 1270.93599,96.9199974 1272.76,97.448 C1274.58401,97.9760026 1276.50399,98.24 1278.52,98.24 C1281.97602,98.24 1285.40798,97.8080043 1288.816,96.944 C1292.22402,96.0799957 1295.39199,94.7600089 1298.32,92.984 C1301.24801,91.2079911 1303.76799,88.9520137 1305.88,86.216 C1307.99201,83.4799863 1309.48,80.2400187 1310.344,76.496 L1312.792,64.832 Z M1299.112,60.512 C1300.74401,60.319999 1302.73599,60.0320019 1305.088,59.648 C1307.44001,59.2639981 1309.43199,58.7360034 1311.064,58.064 C1312.69601,57.3919966 1313.824,56.2640079 1314.448,54.68 C1315.072,53.0959921 1315.528,51.6320067 1315.816,50.288 C1316.296,48.079989 1316.392,46.0640091 1316.104,44.24 C1315.816,42.4159909 1315.07201,40.8320067 1313.872,39.488 C1312.67199,38.1439933 1310.99201,37.0880038 1308.832,36.32 C1306.67199,35.5519962 1303.91202,35.168 1300.552,35.168 C1294.59997,35.168 1289.41602,36.367988 1285,38.768 C1280.58398,41.168012 1277.32001,45.5839678 1275.208,52.016 L1266.424,52.016 C1267.67201,47.5999779 1269.47199,43.8320156 1271.824,40.712 C1274.17601,37.5919844 1276.93598,35.0480098 1280.104,33.08 C1283.27202,31.1119902 1286.75198,29.6720046 1290.544,28.76 C1294.33602,27.8479954 1298.24798,27.392 1302.28,27.392 C1306.02402,27.392 1309.45598,27.7999959 1312.576,28.616 C1315.69602,29.4320041 1318.28799,30.7279911 1320.352,32.504 C1322.41601,34.2800089 1323.832,36.6559851 1324.6,39.632 C1325.368,42.6080149 1325.32,46.2559784 1324.456,50.576 L1315.816,91.184 C1315.048,94.5440168 1315.16799,96.6799954 1316.176,97.592 C1317.18401,98.5040046 1319.65598,98.2880067 1323.592,96.944 L1322.152,103.712 C1321.48,103.904001 1320.44801,104.191998 1319.056,104.576 C1317.66399,104.960002 1316.34401,105.152 1315.096,105.152 C1313.84799,105.152 1312.60001,105.008001 1311.352,104.72 C1308.56799,104.239998 1306.984,102.920011 1306.6,100.76 C1306.216,98.5999892 1306.264,96.224013 1306.744,93.632 C1302.23198,97.6640202 1297.40803,100.735989 1292.272,102.848 C1287.13597,104.960011 1281.83203,106.016 1276.36,106.016 C1273.09598,106.016 1270.04801,105.584004 1267.216,104.72 C1264.38399,103.855996 1262.00801,102.512009 1260.088,100.688 C1258.16799,98.8639909 1256.824,96.6320132 1256.056,93.992 C1255.288,91.3519868 1255.288,88.2080182 1256.056,84.56 C1258.64801,71.8879366 1268.91991,64.4000115 1286.872,62.096 L1299.112,60.512 Z M1336.984,104 L1359.016,0.32 L1367.656,0.32 L1345.624,104 L1336.984,104 Z" id="Making-things-logica"></path>
        </g>
    </g>
</svg>