<?xml version="1.0" encoding="UTF-8"?>
<svg width="2434px" height="500px" viewBox="0 0 2434 500" version="1.1" xmlns="http://www.w3.org/2000/svg" xmlns:xlink="http://www.w3.org/1999/xlink">
    <!-- Generator: Sketch 50.2 (55047) - http://www.bohemiancoding.com/sketch -->
    <title>Text Logo/No Tagline</title>
    <desc>Created with Sketch.</desc>
    <defs></defs>
    <g id="Text-Logo/No-Tagline" stroke="none" stroke-width="1" fill="none" fill-rule="evenodd">
        <g id="Oval-Logo">
            <circle id="Oval" fill="#358AC0" fill-rule="evenodd" cx="250" cy="250" r="250"></circle>
            <g id="Spock-Hand" transform="translate(37.000000, 43.000000)" fill="#FFFFFF" fill-rule="nonzero">
                <path d="M8.49375,247.332031 C20.3210937,234.764844 40.0984375,234.164844 52.6679687,245.99375 L100,290.541406 L100,228.50625 L69.5273438,94.4257812 C65.7023438,77.5960937 76.2445313,60.8523437 93.0742188,57.0273438 C109.909375,53.2039062 126.648438,63.7453125 130.472656,80.575 L157.614844,200 L165.296875,200 L128.1375,38.2546875 C124.273438,21.4335938 134.776563,4.665625 151.596875,0.8015625 C168.41875,-3.065625 185.185938,7.440625 189.05,24.2609375 L229.425,200 L241.225781,200 L279.057813,48.6703125 C283.242969,31.9265625 300.210156,21.746875 316.953906,25.9328125 C333.697656,30.11875 343.878125,47.0851562 339.691406,63.8289062 L305.649219,200 L314.305469,200 L338.342969,99.0117188 C342.340625,82.221875 359.190625,71.8492187 375.98125,75.85 C392.771094,79.8476563 403.141406,96.6984375 399.142969,113.488281 L370.789844,232.603125 C369.434908,238.294147 368.750308,244.124126 368.75,249.974219 L368.75,282.866406 C368.749898,290.084242 367.707904,297.264269 365.65625,304.184375 L345.207812,373.158594 C340.488281,389.079687 325.860156,400 309.254687,400 L139.978125,400 C130.425516,400.000025 121.23296,396.354634 114.276562,389.807812 L9.83203125,291.50625 C-2.7359375,279.677344 -3.334375,259.9 8.49375,247.332031 Z" id="Shape"></path>
            </g>
        </g>
        <g id="Title/Outlines" transform="translate(601.000000, 116.000000)" fill="#358AC0">
            <path d="M31.25,0.421875 L90.59375,176.34375 L149.234375,0.421875 L180.59375,0.421875 L105.21875,207 L75.546875,207 L0.3125,0.421875 L31.25,0.421875 Z M218.421875,56.390625 L218.421875,156.375 C218.421875,164.062538 219.640613,170.343726 222.078125,175.21875 C226.578148,184.218795 234.968689,188.71875 247.25,188.71875 C264.875088,188.71875 276.874968,180.843829 283.25,165.09375 C286.718767,156.656208 288.453125,145.078199 288.453125,130.359375 L288.453125,56.390625 L313.765625,56.390625 L313.765625,207 L289.859375,207 L290.140625,184.78125 C286.859359,190.500029 282.781274,195.328105 277.90625,199.265625 C268.249952,207.140664 256.531319,211.078125 242.75,211.078125 C221.281143,211.078125 206.656289,203.906322 198.875,189.5625 C194.656229,181.874962 192.546875,171.609439 192.546875,158.765625 L192.546875,56.390625 L218.421875,56.390625 Z M353.984375,0.421875 L379.296875,0.421875 L379.296875,207 L353.984375,207 L353.984375,0.421875 Z M475.34375,52.03125 C492.312585,52.03125 506.117134,56.1562087 516.757812,64.40625 C527.398491,72.6562913 533.796864,86.8592742 535.953125,107.015625 L511.34375,107.015625 C509.843742,97.7343286 506.421902,90.0234682 501.078125,83.8828125 C495.734348,77.7421568 487.156309,74.671875 475.34375,74.671875 C459.218669,74.671875 447.687535,82.5467962 440.75,98.296875 C436.249977,108.515676 434,121.124925 434,136.125 C434,151.218825 437.187468,163.921823 443.5625,174.234375 C449.937532,184.546927 459.968682,189.703125 473.65625,189.703125 C484.156302,189.703125 492.476532,186.49222 498.617188,180.070312 C504.757843,173.648405 508.999988,164.859431 511.34375,153.703125 L535.953125,153.703125 C533.140611,173.671975 526.109431,188.273391 514.859375,197.507812 C503.609319,206.742234 489.218838,211.359375 471.6875,211.359375 C451.999902,211.359375 436.296934,204.164134 424.578125,189.773438 C412.859316,175.382741 407,157.406358 407,135.84375 C407,109.406118 413.421811,88.8281986 426.265625,74.109375 C439.109439,59.3905514 455.468651,52.03125 475.34375,52.03125 Z M580.671875,166.921875 C580.671875,174.234412 583.343723,179.999979 588.6875,184.21875 C594.031277,188.437521 600.359338,190.546875 607.671875,190.546875 C616.57817,190.546875 625.203083,188.484396 633.546875,184.359375 C647.609445,177.515591 654.640625,166.312578 654.640625,150.75 L654.640625,130.359375 C651.54686,132.328135 647.562524,133.968743 642.6875,135.28125 C637.812476,136.593757 633.031273,137.531247 628.34375,138.09375 L613.015625,140.0625 C603.828079,141.281256 596.937523,143.203112 592.34375,145.828125 C584.562461,150.234397 580.671875,157.265577 580.671875,166.921875 Z M641.984375,115.734375 C647.796904,114.984371 651.68749,112.546896 653.65625,108.421875 C654.781256,106.171864 655.34375,102.937521 655.34375,98.71875 C655.34375,90.0937069 652.273468,83.835957 646.132812,79.9453125 C639.992157,76.054668 631.203182,74.109375 619.765625,74.109375 C606.546809,74.109375 597.171903,77.6718394 591.640625,84.796875 C588.54686,88.7343947 586.531255,94.5937111 585.59375,102.375 L561.96875,102.375 C562.437502,83.8124072 568.46088,70.8984738 580.039062,63.6328125 C591.617245,56.3671512 605.046799,52.734375 620.328125,52.734375 C638.046964,52.734375 652.437445,56.1093412 663.5,62.859375 C674.468805,69.6094088 679.953125,80.1093038 679.953125,94.359375 L679.953125,181.125 C679.953125,183.750013 680.492182,185.859367 681.570312,187.453125 C682.648443,189.046883 684.921858,189.84375 688.390625,189.84375 C689.515631,189.84375 690.781243,189.773438 692.1875,189.632812 C693.593757,189.492187 695.093742,189.281251 696.6875,189 L696.6875,207.703125 C692.74998,208.828131 689.75001,209.531249 687.6875,209.8125 C685.62499,210.093751 682.812518,210.234375 679.25,210.234375 C670.531206,210.234375 664.203145,207.140656 660.265625,200.953125 C658.203115,197.671859 656.750004,193.03128 655.90625,187.03125 C650.749974,193.781284 643.343798,199.6406 633.6875,204.609375 C624.031202,209.57815 613.390683,212.0625 601.765625,212.0625 C587.796805,212.0625 576.382857,207.820355 567.523438,199.335938 C558.664018,190.85152 554.234375,180.234439 554.234375,167.484375 C554.234375,153.515555 558.593706,142.687538 567.3125,135 C576.031294,127.312462 587.468679,122.578134 601.625,120.796875 L641.984375,115.734375 Z M721.4375,56.390625 L745.484375,56.390625 L745.484375,77.765625 C752.609411,68.9530809 760.15621,62.6250192 768.125,58.78125 C776.09379,54.9374808 784.953076,53.015625 794.703125,53.015625 C816.078232,53.015625 830.515588,60.4686755 838.015625,75.375 C842.140646,83.5312908 844.203125,95.2030491 844.203125,110.390625 L844.203125,207 L818.46875,207 L818.46875,112.078125 C818.46875,102.890579 817.109389,95.4844031 814.390625,89.859375 C809.890602,80.4843281 801.734434,75.796875 789.921875,75.796875 C783.921845,75.796875 779.000019,76.4062439 775.15625,77.625 C768.218715,79.6875103 762.125026,83.8124691 756.875,90 C752.656229,94.9687748 749.914069,100.101536 748.648438,105.398438 C747.382806,110.695339 746.75,118.265576 746.75,128.109375 L746.75,207 L721.4375,207 L721.4375,56.390625 Z M967.671875,0.421875 L1060.625,0.421875 C1079.00009,0.421875 1093.81244,5.6015107 1105.0625,15.9609375 C1116.31256,26.3203643 1121.9375,40.8749063 1121.9375,59.625 C1121.9375,75.7500806 1116.92193,89.7890027 1106.89062,101.742188 C1096.85932,113.695372 1081.4376,119.671875 1060.625,119.671875 L995.65625,119.671875 L995.65625,207 L967.671875,207 L967.671875,0.421875 Z M1093.67188,59.765625 C1093.67188,44.5780491 1088.04693,34.2656522 1076.79688,28.828125 C1070.60934,25.9218605 1062.12505,24.46875 1051.34375,24.46875 L995.65625,24.46875 L995.65625,96.046875 L1051.34375,96.046875 C1063.90631,96.046875 1074.10152,93.3750267 1081.92969,88.03125 C1089.75785,82.6874733 1093.67188,73.2656925 1093.67188,59.765625 Z M1154.42188,56.390625 L1178.46875,56.390625 L1178.46875,82.40625 C1180.43751,77.3437247 1185.26559,71.1797238 1192.95312,63.9140625 C1200.64066,56.6484012 1209.49995,53.015625 1219.53125,53.015625 C1220,53.015625 1220.79687,53.0624995 1221.92188,53.15625 C1223.04688,53.2500005 1224.96874,53.4374986 1227.6875,53.71875 L1227.6875,80.4375 C1226.18749,80.1562486 1224.80469,79.9687505 1223.53906,79.875 C1222.27343,79.7812495 1220.89063,79.734375 1219.39062,79.734375 C1206.64056,79.734375 1196.84378,83.8358965 1190,92.0390625 C1183.15622,100.242229 1179.73438,109.687447 1179.73438,120.375 L1179.73438,207 L1154.42188,207 L1154.42188,56.390625 Z M1309.39062,190.6875 C1326.17196,190.6875 1337.67966,184.336001 1343.91406,171.632812 C1350.14847,158.929624 1353.26562,144.796953 1353.26562,129.234375 C1353.26562,115.171805 1351.01565,103.734419 1346.51562,94.921875 C1339.39059,81.0468056 1327.10946,74.109375 1309.67188,74.109375 C1294.20305,74.109375 1282.95316,80.0155659 1275.92188,91.828125 C1268.89059,103.640684 1265.375,117.890542 1265.375,134.578125 C1265.375,150.609455 1268.89059,163.968697 1275.92188,174.65625 C1282.95316,185.343803 1294.1093,190.6875 1309.39062,190.6875 Z M1310.375,52.03125 C1329.78135,52.03125 1346.18743,58.4999353 1359.59375,71.4375 C1373.00007,84.3750647 1379.70312,103.406124 1379.70312,128.53125 C1379.70312,152.812621 1373.79693,172.874921 1361.98438,188.71875 C1350.17182,204.562579 1331.84387,212.484375 1307,212.484375 C1286.28115,212.484375 1269.82819,205.476633 1257.64062,191.460938 C1245.45306,177.445242 1239.35938,158.625118 1239.35938,135 C1239.35938,109.687373 1245.78119,89.531325 1258.625,74.53125 C1271.46881,59.531175 1288.71864,52.03125 1310.375,52.03125 Z M1435.10938,29.671875 L1409.79688,29.671875 L1409.79688,0.421875 L1435.10938,0.421875 L1435.10938,29.671875 Z M1385.89062,245.109375 C1397.23443,244.734373 1404.05468,243.726571 1406.35156,242.085938 C1408.64845,240.445304 1409.79688,235.312543 1409.79688,226.6875 L1409.79688,57.09375 L1435.10938,57.09375 L1435.10938,229.359375 C1435.10938,240.32818 1433.32814,248.531223 1429.76562,253.96875 C1423.85935,263.156296 1412.65633,267.75 1396.15625,267.75 C1394.93749,267.75 1393.64844,267.703125 1392.28906,267.609375 C1390.92968,267.515625 1388.79689,267.328126 1385.89062,267.046875 L1385.89062,245.109375 Z M1536.5,53.015625 C1547.18755,53.015625 1557.54682,55.5234124 1567.57812,60.5390625 C1577.60943,65.5547126 1585.24997,72.0468352 1590.5,80.015625 C1595.56253,87.609413 1598.93749,96.4686994 1600.625,106.59375 C1602.12501,113.531285 1602.875,124.593674 1602.875,139.78125 L1492.48438,139.78125 C1492.95313,155.062576 1496.56247,167.320266 1503.3125,176.554688 C1510.06253,185.789109 1520.51555,190.40625 1534.67188,190.40625 C1547.89069,190.40625 1558.43746,186.046919 1566.3125,177.328125 C1570.81252,172.2656 1573.99999,166.406283 1575.875,159.75 L1600.76562,159.75 C1600.10937,165.281278 1597.92971,171.445279 1594.22656,178.242188 C1590.52342,185.039096 1586.37502,190.593728 1581.78125,194.90625 C1574.09371,202.406288 1564.57818,207.468737 1553.23438,210.09375 C1547.14059,211.593757 1540.25004,212.34375 1532.5625,212.34375 C1513.81241,212.34375 1497.92194,205.523506 1484.89062,191.882812 C1471.85931,178.242119 1465.34375,159.140748 1465.34375,134.578125 C1465.34375,110.390504 1471.90618,90.7500755 1485.03125,75.65625 C1498.15632,60.5624245 1515.31239,53.015625 1536.5,53.015625 Z M1576.85938,119.671875 C1575.82812,108.70307 1573.43752,99.9375328 1569.6875,93.375 C1562.74997,81.1874391 1551.17196,75.09375 1534.95312,75.09375 C1523.32807,75.09375 1513.57816,79.2890205 1505.70312,87.6796875 C1497.82809,96.0703545 1493.65625,106.73431 1493.1875,119.671875 L1576.85938,119.671875 Z M1692.03125,52.03125 C1709.00008,52.03125 1722.80463,56.1562087 1733.44531,64.40625 C1744.08599,72.6562913 1750.48436,86.8592742 1752.64062,107.015625 L1728.03125,107.015625 C1726.53124,97.7343286 1723.1094,90.0234682 1717.76562,83.8828125 C1712.42185,77.7421568 1703.84381,74.671875 1692.03125,74.671875 C1675.90617,74.671875 1664.37503,82.5467962 1657.4375,98.296875 C1652.93748,108.515676 1650.6875,121.124925 1650.6875,136.125 C1650.6875,151.218825 1653.87497,163.921823 1660.25,174.234375 C1666.62503,184.546927 1676.65618,189.703125 1690.34375,189.703125 C1700.8438,189.703125 1709.16403,186.49222 1715.30469,180.070312 C1721.44534,173.648405 1725.68749,164.859431 1728.03125,153.703125 L1752.64062,153.703125 C1749.82811,173.671975 1742.79693,188.273391 1731.54688,197.507812 C1720.29682,206.742234 1705.90634,211.359375 1688.375,211.359375 C1668.6874,211.359375 1652.98443,204.164134 1641.26562,189.773438 C1629.54682,175.382741 1623.6875,157.406358 1623.6875,135.84375 C1623.6875,109.406118 1630.10931,88.8281986 1642.95312,74.109375 C1655.79694,59.3905514 1672.15615,52.03125 1692.03125,52.03125 Z M1783.01562,14.34375 L1808.60938,14.34375 L1808.60938,56.390625 L1832.65625,56.390625 L1832.65625,77.0625 L1808.60938,77.0625 L1808.60938,175.359375 C1808.60938,180.609401 1810.39061,184.124991 1813.95312,185.90625 C1815.92188,186.937505 1819.2031,187.453125 1823.79688,187.453125 C1825.01563,187.453125 1826.32812,187.429688 1827.73438,187.382812 C1829.14063,187.335937 1830.78124,187.218751 1832.65625,187.03125 L1832.65625,207 C1829.74999,207.843754 1826.72658,208.453123 1823.58594,208.828125 C1820.4453,209.203127 1817.04689,209.390625 1813.39062,209.390625 C1801.57807,209.390625 1793.56252,206.367218 1789.34375,200.320312 C1785.12498,194.273407 1783.01562,186.421923 1783.01562,176.765625 L1783.01562,77.0625 L1762.625,77.0625 L1762.625,56.390625 L1783.01562,56.390625 L1783.01562,14.34375 Z" id="Vulcan-Project"></path>
        </g>
    </g>
</svg>